<?xml version="1.0" encoding="utf-8"?>
<!-- Generator: Adobe Illustrator 19.0.0, SVG Export Plug-In . SVG Version: 6.00 Build 0)  -->
<svg version="1.1" id="Camada_1" xmlns="http://www.w3.org/2000/svg" xmlns:xlink="http://www.w3.org/1999/xlink" x="0px" y="0px"
	 viewBox="0 0 32 32" style="enable-background:new 0 0 32 32;" xml:space="preserve">
<style type="text/css">
	.st0{fill:#EE9897;}
	.st1{fill:none;}
</style>
<g id="XMLID_2_">
	<path id="XMLID_10_" class="st0" d="M31.2,11.3l-3.5,12C27.6,23.6,27.3,24,27,24h-2.3c-0.3,0-0.6-0.4-0.7-0.7L23,19
		c-0.2-0.7-1.2-0.6-1.4,0.1l-0.9,4.2C20.6,23.6,20.3,24,20,24h-2.3c-0.3,0-0.6-0.3-0.7-0.6L12.5,9.8C12.4,9.3,12.7,9,13.2,9h2.1
		c0.3,0,0.6,0.1,0.7,0.4l1.8,5.3c0.2,0.7,1.2,0.7,1.4,0l1.2-5.2C20.4,9.1,20.7,9,21,9h2.2c0.3,0,0.6,0.1,0.7,0.4l1.4,5.1
		c0.2,0.7,1.1,0.7,1.3,0.1l1.6-5.2C28.3,9.1,28.6,9,28.9,9h1.3c-2.6-6-8-9-14.3-9C9.6,0,4.2,3.6,1.6,8.9c0,0,0.1,0.1,0.1,0.1h2
		C4.1,9,4,9.1,4,9.5v4.4C4,14.3,4.7,15,5.1,15H8c0.4,0,1-0.7,1-1.1V9.5C9,9.1,9,9,9.4,9h2C11.8,9,12,9.1,12,9.5v13.4
		c0,0.4-0.2,1.1-0.6,1.1h-2C9,24,9,23.3,9,22.9v-4.2C9,18.4,8.4,18,8,18H5.1C4.7,18,4,18.4,4,18.7v4.2C4,23.3,4.1,24,3.7,24H2.1
		c2.7,5,7.9,7.9,13.8,7.9c8.8,0,15.9-7.3,15.9-16.1C31.9,14.2,31.6,12.8,31.2,11.3z"/>
	<path id="XMLID_9_" class="st0" d="M1,10c0,0.1-0.1,0.2-0.1,0.3c-0.6,1.7-0.9,3.5-0.9,5.4c0,1.9,0.3,3.6,0.9,5.3
		C0.9,21.3,1,21.7,1,22c0-0.2,0-0.4,0-0.6c0-0.7,0-1.4,0-2.1c0-1,0-1.9,0-2.9c0-1,0-2,0-3c0-0.8,0-1.7,0-2.5C1,10.6,1,10.3,1,10z"/>
</g>
<path id="XMLID_1_" class="st1" d="M1.2,9.2c-0.1,0-0.2,0-0.3,0.1c0,0,0,0-0.1,0c0,0,0,0,0,0.1c0,0.2,0,0.4,0.1,0.5
	C1,9.9,1,9.9,1.1,9.9c0,0,0.1,0,0.1,0c0,0,0,0,0,0C1.3,9.7,1.3,9.4,1.2,9.2"/>
<line id="XMLID_3_" class="st1" x1="1" y1="9.5" x2="1.2" y2="9.7"/>
</svg>
